<svg width="18" height="18" viewBox="0.0 0.0 18.0 18.0" fill="none" xmlns="http://www.w3.org/2000/svg">
<path d="M12 9.5625H6C5.6925 9.5625 5.4375 9.3075 5.4375 9C5.4375 8.6925 5.6925 8.4375 6 8.4375H12C12.3075 8.4375 12.5625 8.6925 12.5625 9C12.5625 9.3075 12.3075 9.5625 12 9.5625Z" fill="#3D4CD6"/>
<path d="M9 12.5625C8.6925 12.5625 8.4375 12.3075 8.4375 12V6C8.4375 5.6925 8.6925 5.4375 9 5.4375C9.3075 5.4375 9.5625 5.6925 9.5625 6V12C9.5625 12.3075 9.3075 12.5625 9 12.5625Z" fill="#3D4CD6"/>
<path d="M11.25 17.0625H6.75C2.6775 17.0625 0.9375 15.3225 0.9375 11.25V6.75C0.9375 2.6775 2.6775 0.9375 6.75 0.9375H11.25C15.3225 0.9375 17.0625 2.6775 17.0625 6.75V11.25C17.0625 15.3225 15.3225 17.0625 11.25 17.0625ZM6.75 2.0625C3.2925 2.0625 2.0625 3.2925 2.0625 6.75V11.25C2.0625 14.7075 3.2925 15.9375 6.75 15.9375H11.25C14.7075 15.9375 15.9375 14.7075 15.9375 11.25V6.75C15.9375 3.2925 14.7075 2.0625 11.25 2.0625H6.75Z" fill="#3D4CD6"/>
</svg>