<svg width="20" height="20" viewBox="0 0 20 20" fill="none" xmlns="http://www.w3.org/2000/svg">
<path d="M7.425 17.225C7.26667 17.225 7.10833 17.1667 6.98333 17.0417C6.74167 16.8 6.74167 16.4 6.98333 16.1583L12.4167 10.725C12.8167 10.325 12.8167 9.675 12.4167 9.275L6.98333 3.84167C6.74167 3.6 6.74167 3.2 6.98333 2.95833C7.225 2.71667 7.625 2.71667 7.86667 2.95833L13.3 8.39167C13.725 8.81667 13.9667 9.39167 13.9667 10C13.9667 10.6083 13.7333 11.1833 13.3 11.6083L7.86667 17.0417C7.74167 17.1583 7.58333 17.225 7.425 17.225Z" fill="#383838"/>
</svg>