<svg width="16" height="16" viewBox="0 0 40 40" fill="none" xmlns="http://www.w3.org/2000/svg">
<path d="M25.5595 17.247L18.5595 24.247C18.5189 24.2877 18.4706 24.32 18.4175 24.342C18.3644 24.364 18.3075 24.3753 18.25 24.3753C18.1925 24.3753 18.1356 24.364 18.0825 24.342C18.0294 24.32 17.9811 24.2877 17.9405 24.247L14.878 21.1845C14.7959 21.1024 14.7498 20.9911 14.7498 20.875C14.7498 20.7589 14.7959 20.6476 14.878 20.5655C14.9601 20.4834 15.0714 20.4373 15.1875 20.4373C15.3036 20.4373 15.4149 20.4834 15.497 20.5655L18.25 23.319L24.9405 16.628C25.0226 16.5459 25.1339 16.4998 25.25 16.4998C25.3661 16.4998 25.4774 16.5459 25.5595 16.628C25.6416 16.7101 25.6877 16.8214 25.6877 16.9375C25.6877 17.0536 25.6416 17.1649 25.5595 17.247Z" fill="white"/>
</svg>