<svg width="18" height="18" viewBox="0 0 18 18" fill="none" xmlns="http://www.w3.org/2000/svg">
<path d="M11.25 17.0625H6.75C2.6775 17.0625 0.9375 15.3225 0.9375 11.25V6.75C0.9375 2.6775 2.6775 0.9375 6.75 0.9375H8.25C8.5575 0.9375 8.8125 1.1925 8.8125 1.5C8.8125 1.8075 8.5575 2.0625 8.25 2.0625H6.75C3.2925 2.0625 2.0625 3.2925 2.0625 6.75V11.25C2.0625 14.7075 3.2925 15.9375 6.75 15.9375H11.25C14.7075 15.9375 15.9375 14.7075 15.9375 11.25V9.75C15.9375 9.4425 16.1925 9.1875 16.5 9.1875C16.8075 9.1875 17.0625 9.4425 17.0625 9.75V11.25C17.0625 15.3225 15.3225 17.0625 11.25 17.0625Z" fill="#383838"></path>
<path d="M6.375 13.2675C5.9175 13.2675 5.4975 13.1025 5.19 12.8025C4.8225 12.435 4.665 11.9025 4.7475 11.34L5.07 9.0825C5.13 8.6475 5.415 8.085 5.7225 7.7775L11.6325 1.8675C13.125 0.375 14.64 0.375 16.1325 1.8675C16.95 2.685 17.3175 3.5175 17.2425 4.35C17.175 5.025 16.815 5.685 16.1325 6.36L10.2225 12.27C9.915 12.5775 9.3525 12.8625 8.9175 12.9225L6.66 13.245C6.5625 13.2675 6.465 13.2675 6.375 13.2675ZM12.4275 2.6625L6.5175 8.5725C6.375 8.715 6.21 9.045 6.18 9.24L5.8575 11.4975C5.8275 11.715 5.8725 11.895 5.985 12.0075C6.0975 12.12 6.2775 12.165 6.495 12.135L8.7525 11.8125C8.9475 11.7825 9.285 11.6175 9.42 11.475L15.33 5.565C15.8175 5.0775 16.0725 4.6425 16.11 4.2375C16.155 3.75 15.9 3.2325 15.33 2.655C14.13 1.455 13.305 1.7925 12.4275 2.6625Z" fill="#383838"></path>
<path d="M14.8875 7.3725C14.835 7.3725 14.7825 7.365 14.7375 7.35C12.765 6.795 11.1975 5.2275 10.6425 3.255C10.56 2.955 10.7325 2.6475 11.0325 2.5575C11.3325 2.475 11.64 2.6475 11.7225 2.9475C12.1725 4.545 13.44 5.8125 15.0375 6.2625C15.3375 6.345 15.51 6.66 15.4275 6.96C15.36 7.215 15.135 7.3725 14.8875 7.3725Z" fill="#383838"></path>
</svg>