<svg width="18" height="18" viewBox="0 0 18 18" fill="none" xmlns="http://www.w3.org/2000/svg">
<path d="M8.20505 16.9875C7.84505 16.9875 7.49255 16.8975 7.16255 16.7175C6.50255 16.35 6.10505 15.6825 6.10505 14.9325V10.9575C6.10505 10.5825 5.85755 10.02 5.62505 9.73501L2.82005 6.76501C2.34755 6.29251 1.98755 5.48251 1.98755 4.87501V3.15001C1.98755 1.95001 2.89505 1.01251 4.05005 1.01251H13.95C15.09 1.01251 16.0125 1.93501 16.0125 3.07501V4.72501C16.0125 5.51251 15.54 6.40501 15.0975 6.84751L11.85 9.72001C11.535 9.98251 11.2875 10.56 11.2875 11.025V14.25C11.2875 14.9175 10.8675 15.69 10.3425 16.005L9.30755 16.6725C8.97005 16.8825 8.58755 16.9875 8.20505 16.9875ZM4.05005 2.13751C3.52505 2.13751 3.11255 2.58001 3.11255 3.15001V4.87501C3.11255 5.15251 3.33755 5.69251 3.62255 5.97751L6.48005 8.98501C6.86255 9.45751 7.23755 10.245 7.23755 10.95V14.925C7.23755 15.4125 7.57505 15.6525 7.71755 15.7275C8.03255 15.9 8.41505 15.9 8.70755 15.72L9.75005 15.0525C9.96005 14.925 10.17 14.52 10.17 14.25V11.025C10.17 10.2225 10.56 9.33751 11.1225 8.86501L14.3326 6.02251C14.5875 5.76751 14.8951 5.16001 14.8951 4.71751V3.07501C14.8951 2.55751 14.475 2.13751 13.9576 2.13751H4.05005Z" fill="#707070"/>
<path d="M4.5 8.06251C4.395 8.06251 4.2975 8.03251 4.2 7.98001C3.9375 7.81501 3.855 7.46251 4.02 7.20001L7.7175 1.27501C7.8825 1.01251 8.2275 0.930014 8.49 1.09501C8.7525 1.26001 8.835 1.60501 8.67 1.86751L4.9725 7.79251C4.8675 7.96501 4.6875 8.06251 4.5 8.06251Z" fill="#707070"/>
</svg>