<svg width="14" height="14" viewBox="0 0 14 14" fill="none" xmlns="http://www.w3.org/2000/svg">
<path d="M7.04082 12.8217C6.21832 12.8217 5.38999 12.5067 4.76582 11.8825L2.12332 9.24001C1.48166 8.59834 1.14332 7.71168 1.18416 6.80751L1.32416 3.89084C1.38832 2.49668 2.49082 1.39418 3.89082 1.32418L6.80749 1.18418C7.71166 1.14918 8.59832 1.48168 9.23999 2.12334L11.8825 4.76584C13.1367 6.02001 13.1367 8.06751 11.8825 9.32168L9.32166 11.8825C8.69166 12.5067 7.86916 12.8217 7.04082 12.8217ZM2.74166 8.61584L5.38416 11.2583C5.82749 11.7017 6.41666 11.9467 7.04082 11.9467C7.66499 11.9467 8.25416 11.7017 8.69749 11.2583L11.2583 8.69751C11.7017 8.25418 11.9467 7.66501 11.9467 7.04084C11.9467 6.41668 11.7017 5.82751 11.2583 5.38418L8.61582 2.74168C8.14916 2.27501 7.50166 2.02418 6.84832 2.05918L3.93166 2.19918C2.98082 2.24001 2.23999 2.98084 2.19332 3.92584L2.05332 6.84251C2.02416 7.50168 2.27499 8.14918 2.74166 8.61584Z" fill="#707070"/>
<path d="M5.54165 7.43751C4.49748 7.43751 3.64581 6.58584 3.64581 5.54168C3.64581 4.49751 4.49748 3.64584 5.54165 3.64584C6.58581 3.64584 7.43748 4.49751 7.43748 5.54168C7.43748 6.58584 6.58581 7.43751 5.54165 7.43751ZM5.54165 4.52084C4.98165 4.52084 4.52081 4.98168 4.52081 5.54168C4.52081 6.10168 4.98165 6.56251 5.54165 6.56251C6.10165 6.56251 6.56248 6.10168 6.56248 5.54168C6.56248 4.98168 6.10165 4.52084 5.54165 4.52084Z" fill="#707070"/>
</svg>