<svg width="18" height="18" viewBox="0 0 18 18" fill="none" xmlns="http://www.w3.org/2000/svg">
<path d="M9 16.2375C8.7675 16.2375 8.5425 16.2075 8.355 16.14C5.49 15.1575 0.9375 11.67 0.9375 6.5175C0.9375 3.8925 3.06 1.7625 5.67 1.7625C6.9375 1.7625 8.1225 2.2575 9 3.1425C9.8775 2.2575 11.0625 1.7625 12.33 1.7625C14.94 1.7625 17.0625 3.9 17.0625 6.5175C17.0625 11.6775 12.51 15.1575 9.645 16.14C9.4575 16.2075 9.2325 16.2375 9 16.2375ZM5.67 2.8875C3.6825 2.8875 2.0625 4.515 2.0625 6.5175C2.0625 11.64 6.99 14.49 8.7225 15.0825C8.8575 15.1275 9.15 15.1275 9.285 15.0825C11.01 14.49 15.945 11.6475 15.945 6.5175C15.945 4.515 14.325 2.8875 12.3375 2.8875C11.1975 2.8875 10.14 3.42 9.4575 4.3425C9.2475 4.6275 8.7675 4.6275 8.5575 4.3425C7.86 3.4125 6.81 2.8875 5.67 2.8875Z" fill="#383838"></path>
</svg>