<svg width="20" height="20" viewBox="0 0 20 20" fill="none" xmlns="http://www.w3.org/2000/svg">
<path d="M6.66663 18.5999C6.43329 18.5999 6.19161 18.5416 5.97495 18.4249C5.49995 18.1749 5.20829 17.6749 5.20829 17.1416V15.9583C2.69163 15.7 1.04163 13.8499 1.04163 11.1999V6.19996C1.04163 3.33329 2.96663 1.40829 5.83329 1.40829H14.1666C17.0333 1.40829 18.9583 3.33329 18.9583 6.19996V11.1999C18.9583 14.0666 17.0333 15.9916 14.1666 15.9916H11.0249L7.47494 18.3583C7.23327 18.5166 6.94996 18.5999 6.66663 18.5999ZM5.83329 2.64995C3.68329 2.64995 2.29163 4.04162 2.29163 6.19162V11.1917C2.29163 13.3417 3.68329 14.7333 5.83329 14.7333C6.17496 14.7333 6.45829 15.0167 6.45829 15.3583V17.1333C6.45829 17.2417 6.52496 17.2916 6.56663 17.3167C6.6083 17.3417 6.69164 17.3666 6.78331 17.3083L10.4916 14.8417C10.5916 14.775 10.7166 14.7333 10.8416 14.7333H14.175C16.325 14.7333 17.7166 13.3417 17.7166 11.1917V6.19162C17.7166 4.04162 16.325 2.64995 14.175 2.64995H5.83329Z" fill="#707070"/>
<path d="M9.99989 10.0916C9.65822 10.0916 9.37489 9.80831 9.37489 9.46664V9.29168C9.37489 8.32501 10.0832 7.85 10.3499 7.66667C10.6582 7.45833 10.7582 7.31667 10.7582 7.10001C10.7582 6.68334 10.4166 6.34164 9.99989 6.34164C9.58322 6.34164 9.24158 6.68334 9.24158 7.10001C9.24158 7.44167 8.95824 7.72501 8.61658 7.72501C8.27491 7.72501 7.99158 7.44167 7.99158 7.10001C7.99158 5.99167 8.89155 5.09164 9.99989 5.09164C11.1082 5.09164 12.0082 5.99167 12.0082 7.10001C12.0082 8.05001 11.3082 8.52499 11.0499 8.69999C10.7249 8.91666 10.6249 9.05834 10.6249 9.29168V9.46664C10.6249 9.81664 10.3416 10.0916 9.99989 10.0916Z" fill="#707070"/>
<path d="M10 12.1667C9.65 12.1667 9.375 11.8833 9.375 11.5417C9.375 11.2 9.65833 10.9167 10 10.9167C10.3417 10.9167 10.625 11.2 10.625 11.5417C10.625 11.8833 10.35 12.1667 10 12.1667Z" fill="#707070"/>
</svg>