<svg width="18" height="18" viewBox="0 0 18 18" fill="none" xmlns="http://www.w3.org/2000/svg">
<path d="M9.37518 11.0625H7.50018C7.19268 11.0625 6.93768 10.8075 6.93768 10.5C6.93768 10.1925 7.19268 9.9375 7.50018 9.9375H9.37518C11.3402 9.9375 12.9377 8.34 12.9377 6.375C12.9377 4.41 11.3402 2.8125 9.37518 2.8125H5.62518C3.66018 2.8125 2.06268 4.41 2.06268 6.375C2.06268 7.2 2.35517 8.00249 2.88017 8.63999C3.07517 8.87999 3.04518 9.23249 2.80518 9.43499C2.56518 9.62999 2.21268 9.60001 2.01018 9.36001C1.31268 8.52001 0.930176 7.4625 0.930176 6.375C0.930176 3.7875 3.03018 1.6875 5.61768 1.6875H9.36768C11.9552 1.6875 14.0552 3.7875 14.0552 6.375C14.0552 8.9625 11.9627 11.0625 9.37518 11.0625Z" fill="#383838"></path>
<path d="M12.375 16.3125H8.625C6.0375 16.3125 3.9375 14.2125 3.9375 11.625C3.9375 9.0375 6.0375 6.9375 8.625 6.9375H10.5C10.8075 6.9375 11.0625 7.1925 11.0625 7.5C11.0625 7.8075 10.8075 8.0625 10.5 8.0625H8.625C6.66 8.0625 5.0625 9.66 5.0625 11.625C5.0625 13.59 6.66 15.1875 8.625 15.1875H12.375C14.34 15.1875 15.9375 13.59 15.9375 11.625C15.9375 10.8 15.645 9.99751 15.12 9.36001C14.925 9.12001 14.955 8.76751 15.195 8.56501C15.435 8.36251 15.7875 8.39999 15.99 8.63999C16.6875 9.47999 17.07 10.5375 17.07 11.625C17.0625 14.2125 14.9625 16.3125 12.375 16.3125Z" fill="#383838"></path>
</svg>