<svg width="18" height="18" viewBox="0 0 18 18" fill="none" xmlns="http://www.w3.org/2000/svg">
<path d="M10.9125 16.815C10.665 16.815 10.4325 16.65 10.365 16.395C10.2825 16.095 10.4625 15.7875 10.77 15.705C13.815 14.9025 15.9375 12.1425 15.9375 8.9925C15.9375 5.1675 12.825 2.055 9 2.055C5.7525 2.055 3.6225 3.9525 2.625 5.1H4.83C5.1375 5.1 5.3925 5.355 5.3925 5.6625C5.3925 5.97 5.145 6.2325 4.83 6.2325H1.5075C1.47 6.2325 1.4025 6.225 1.35 6.21C1.2825 6.1875 1.2225 6.1575 1.17 6.12C1.1025 6.075 1.05 6.015 1.0125 5.9475C0.975 5.88 0.945 5.7975 0.9375 5.715C0.9375 5.6925 0.9375 5.6775 0.9375 5.655V2.25C0.9375 1.9425 1.1925 1.6875 1.5 1.6875C1.8075 1.6875 2.0625 1.9425 2.0625 2.25V4.0425C3.285 2.73 5.5875 0.9375 9 0.9375C13.4475 0.9375 17.0625 4.5525 17.0625 9C17.0625 12.66 14.595 15.87 11.055 16.8C11.01 16.8075 10.9575 16.815 10.9125 16.815Z" fill="#707070"/>
<path d="M8.4675 17.0475C8.4525 17.0475 8.4375 17.04 8.43 17.04C7.62 16.9875 6.825 16.8075 6.075 16.515C5.8575 16.4325 5.7075 16.215 5.715 15.9825C5.715 15.915 5.73 15.8475 5.7525 15.7875C5.865 15.5025 6.2025 15.36 6.48 15.465C7.1325 15.72 7.815 15.87 8.505 15.9225C8.7975 15.9375 9.03 16.1925 9.03 16.4925L9.0225 16.5225C9.0075 16.815 8.76 17.0475 8.4675 17.0475ZM4.335 15.435C4.2075 15.435 4.0875 15.39 3.9825 15.315C3.3525 14.805 2.7975 14.2125 2.3475 13.5525C2.28 13.455 2.2425 13.35 2.2425 13.2375C2.2425 13.05 2.3325 12.8775 2.49 12.7725C2.7375 12.6 3.0975 12.6675 3.27 12.9075C3.27 12.915 3.27 12.915 3.27 12.915C3.2775 12.9225 3.285 12.9375 3.2925 12.945C3.6825 13.5075 4.155 14.01 4.6875 14.43C4.815 14.535 4.8975 14.6925 4.8975 14.865C4.8975 14.9925 4.86 15.12 4.7775 15.225C4.665 15.36 4.5075 15.435 4.335 15.435ZM1.83 11.775C1.5825 11.775 1.365 11.6175 1.2975 11.385C1.0575 10.6125 0.9375 9.81 0.9375 9V8.9925C0.945 8.685 1.1925 8.4375 1.5 8.4375C1.8075 8.4375 2.0625 8.6925 2.0625 9C2.0625 9.705 2.1675 10.395 2.37 11.0475C2.385 11.1075 2.3925 11.16 2.3925 11.22C2.3925 11.46 2.235 11.6775 1.995 11.7525C1.9425 11.7675 1.89 11.775 1.83 11.775Z" fill="#707070"/>
</svg>