<svg width="18" height="18" viewBox="0 0 18 18" fill="none" xmlns="http://www.w3.org/2000/svg">
<path d="M7.875 4.21875C7.875 3.99625 7.94098 3.77874 8.0646 3.59373C8.18821 3.40873 8.36392 3.26453 8.56948 3.17939C8.77505 3.09424 9.00125 3.07196 9.21948 3.11537C9.43771 3.15878 9.63816 3.26592 9.7955 3.42326C9.95283 3.58059 10.06 3.78105 10.1034 3.99927C10.1468 4.2175 10.1245 4.4437 10.0394 4.64927C9.95422 4.85484 9.81002 5.03054 9.62502 5.15415C9.44001 5.27777 9.2225 5.34375 9 5.34375C8.70163 5.34375 8.41548 5.22522 8.20451 5.01425C7.99353 4.80327 7.875 4.51712 7.875 4.21875ZM9 7.875C8.7775 7.875 8.55999 7.94098 8.37498 8.0646C8.18998 8.18821 8.04578 8.36392 7.96064 8.56948C7.87549 8.77505 7.85321 9.00125 7.89662 9.21948C7.94003 9.43771 8.04717 9.63816 8.20451 9.7955C8.36184 9.95283 8.5623 10.06 8.78052 10.1034C8.99875 10.1468 9.22495 10.1245 9.43052 10.0394C9.63609 9.95422 9.81179 9.81002 9.9354 9.62502C10.059 9.44001 10.125 9.22251 10.125 9C10.125 8.70163 10.0065 8.41548 9.7955 8.20451C9.58452 7.99353 9.29837 7.875 9 7.875ZM9 12.6563C8.7775 12.6563 8.55999 12.7222 8.37498 12.8458C8.18998 12.9695 8.04578 13.1452 7.96064 13.3507C7.87549 13.5563 7.85321 13.7825 7.89662 14.0007C7.94003 14.219 8.04717 14.4194 8.20451 14.5767C8.36184 14.7341 8.5623 14.8412 8.78052 14.8846C8.99875 14.928 9.22495 14.9058 9.43052 14.8206C9.63609 14.7355 9.81179 14.5913 9.9354 14.4063C10.059 14.2213 10.125 14.0038 10.125 13.7813C10.125 13.4829 10.0065 13.1967 9.7955 12.9858C9.58452 12.7748 9.29837 12.6563 9 12.6563Z" fill="#383838"></path>
</svg>