<svg width="18" height="18" viewBox="0 0 18 18" fill="none" xmlns="http://www.w3.org/2000/svg">
<path d="M11.25 17.0625H6.75C2.6775 17.0625 0.9375 15.3225 0.9375 11.25V6.75C0.9375 2.6775 2.6775 0.9375 6.75 0.9375H11.25C15.3225 0.9375 17.0625 2.6775 17.0625 6.75V11.25C17.0625 15.3225 15.3225 17.0625 11.25 17.0625ZM6.75 2.0625C3.2925 2.0625 2.0625 3.2925 2.0625 6.75V11.25C2.0625 14.7075 3.2925 15.9375 6.75 15.9375H11.25C14.7075 15.9375 15.9375 14.7075 15.9375 11.25V6.75C15.9375 3.2925 14.7075 2.0625 11.25 2.0625H6.75Z" fill="#707070"/>
<path d="M5.49746 11.43C5.37746 11.43 5.25746 11.3925 5.15246 11.31C4.90496 11.1225 4.85996 10.77 5.04746 10.5225L6.83246 8.20501C7.04996 7.92751 7.35746 7.74751 7.70996 7.70251C8.05496 7.65751 8.40746 7.75501 8.68496 7.97251L10.0575 9.05251C10.11 9.09751 10.1625 9.09751 10.2 9.09001C10.23 9.09001 10.2825 9.07501 10.3275 9.01501L12.06 6.78001C12.2475 6.53251 12.6075 6.48751 12.8475 6.68251C13.095 6.87001 13.14 7.22251 12.945 7.47001L11.2125 9.70501C10.995 9.98251 10.6875 10.1625 10.335 10.2C9.98246 10.245 9.63746 10.1475 9.35996 9.93001L7.98746 8.85001C7.93496 8.80501 7.87496 8.80501 7.84496 8.81251C7.81496 8.81251 7.76246 8.82751 7.71746 8.88751L5.93246 11.205C5.83496 11.355 5.66996 11.43 5.49746 11.43Z" fill="#707070"/>
</svg>