<svg width="14" height="14" viewBox="0 0 14 14" fill="none" xmlns="http://www.w3.org/2000/svg">
<path d="M9.33333 7.4375H4.66667C4.4275 7.4375 4.22917 7.23917 4.22917 7C4.22917 6.76083 4.4275 6.5625 4.66667 6.5625H9.33333C9.5725 6.5625 9.77083 6.76083 9.77083 7C9.77083 7.23917 9.5725 7.4375 9.33333 7.4375Z" fill="#3D4CD6"></path>
<path d="M7 9.77083C6.76083 9.77083 6.5625 9.5725 6.5625 9.33333V4.66667C6.5625 4.4275 6.76083 4.22917 7 4.22917C7.23917 4.22917 7.4375 4.4275 7.4375 4.66667V9.33333C7.4375 9.5725 7.23917 9.77083 7 9.77083Z" fill="#3D4CD6"></path>
<path d="M8.75 13.2708H5.25C2.0825 13.2708 0.729167 11.9175 0.729167 8.75V5.25C0.729167 2.0825 2.0825 0.729167 5.25 0.729167H8.75C11.9175 0.729167 13.2708 2.0825 13.2708 5.25V8.75C13.2708 11.9175 11.9175 13.2708 8.75 13.2708ZM5.25 1.60417C2.56083 1.60417 1.60417 2.56083 1.60417 5.25V8.75C1.60417 11.4392 2.56083 12.3958 5.25 12.3958H8.75C11.4392 12.3958 12.3958 11.4392 12.3958 8.75V5.25C12.3958 2.56083 11.4392 1.60417 8.75 1.60417H5.25Z" fill="#3D4CD6"></path>
</svg>