<svg width="14" height="14" viewBox="0 0 14 14" fill="none" xmlns="http://www.w3.org/2000/svg">
<path d="M8.75002 13.2708H5.25002C2.08252 13.2708 0.729187 11.9175 0.729187 8.74999V5.24999C0.729187 2.08249 2.08252 0.729156 5.25002 0.729156H8.75002C11.9175 0.729156 13.2709 2.08249 13.2709 5.24999V8.74999C13.2709 11.9175 11.9175 13.2708 8.75002 13.2708ZM5.25002 1.60416C2.56085 1.60416 1.60419 2.56082 1.60419 5.24999V8.74999C1.60419 11.4392 2.56085 12.3958 5.25002 12.3958H8.75002C11.4392 12.3958 12.3959 11.4392 12.3959 8.74999V5.24999C12.3959 2.56082 11.4392 1.60416 8.75002 1.60416H5.25002Z" fill="#707070"/>
<path d="M8.02666 10.3542H5.96749C5.32583 10.3542 4.81833 10.0392 4.53249 9.46751L4.01333 8.42334C3.89083 8.17251 3.63999 8.02084 3.35999 8.02084H1.16083C0.921661 8.02084 0.723328 7.82251 0.723328 7.58334C0.723328 7.34418 0.927494 7.14584 1.16666 7.14584H3.35999C3.97249 7.14584 4.52083 7.48418 4.79499 8.03251L5.31416 9.07668C5.44833 9.34501 5.66416 9.47918 5.96749 9.47918H8.02666C8.30666 9.47918 8.55749 9.32751 8.67999 9.07668L9.19916 8.03251C9.47333 7.48418 10.0217 7.14584 10.6342 7.14584H12.8158C13.055 7.14584 13.2533 7.34418 13.2533 7.58334C13.2533 7.82251 13.055 8.02084 12.8158 8.02084H10.6342C10.3542 8.02084 10.1033 8.17251 9.98083 8.42334L9.46166 9.46751C9.18749 10.0158 8.63916 10.3542 8.02666 10.3542Z" fill="#707070"/>
</svg>