<svg width="18" height="18" viewBox="0 0 18 18" fill="none" xmlns="http://www.w3.org/2000/svg">
<path d="M8.84255 8.91C8.43755 8.91 8.02505 8.835 7.70255 8.6925L3.27755 6.7275C2.15255 6.225 1.98755 5.55 1.98755 5.1825C1.98755 4.815 2.15255 4.14 3.27755 3.6375L7.70255 1.6725C8.35505 1.38 9.33755 1.38 9.99005 1.6725L14.4225 3.6375C15.54 4.1325 15.7125 4.815 15.7125 5.1825C15.7125 5.55 15.5475 6.225 14.4225 6.7275L9.99005 8.6925C9.66005 8.8425 9.25505 8.91 8.84255 8.91ZM8.84255 2.58C8.58755 2.58 8.34005 2.6175 8.16005 2.7L3.73505 4.665C3.27755 4.875 3.11255 5.085 3.11255 5.1825C3.11255 5.28 3.27755 5.4975 3.72755 5.7L8.15255 7.665C8.51255 7.8225 9.16505 7.8225 9.52505 7.665L13.9576 5.7C14.415 5.4975 14.58 5.28 14.58 5.1825C14.58 5.085 14.415 4.8675 13.9576 4.665L9.53255 2.7C9.35255 2.625 9.09755 2.58 8.84255 2.58Z" fill="#707070"/>
<path d="M9 12.8175C8.715 12.8175 8.43 12.7575 8.16 12.6375L3.0675 10.3725C2.295 10.035 1.6875 9.0975 1.6875 8.25C1.6875 7.9425 1.9425 7.6875 2.25 7.6875C2.5575 7.6875 2.8125 7.9425 2.8125 8.25C2.8125 8.6625 3.15 9.18 3.525 9.3525L8.6175 11.6175C8.8575 11.7225 9.135 11.7225 9.3825 11.6175L14.475 9.3525C14.85 9.1875 15.1875 8.6625 15.1875 8.25C15.1875 7.9425 15.4425 7.6875 15.75 7.6875C16.0575 7.6875 16.3125 7.9425 16.3125 8.25C16.3125 9.0975 15.705 10.035 14.9325 10.38L9.84 12.645C9.57 12.7575 9.285 12.8175 9 12.8175Z" fill="#707070"/>
<path d="M9 16.5675C8.715 16.5675 8.43 16.5075 8.16 16.3875L3.0675 14.1225C2.2275 13.7475 1.6875 12.915 1.6875 11.9925C1.6875 11.685 1.9425 11.43 2.25 11.43C2.5575 11.43 2.8125 11.6925 2.8125 12C2.8125 12.4725 3.09 12.9075 3.525 13.1025L8.6175 15.3675C8.8575 15.4725 9.135 15.4725 9.3825 15.3675L14.475 13.1025C14.91 12.9075 15.1875 12.48 15.1875 12C15.1875 11.6925 15.4425 11.4375 15.75 11.4375C16.0575 11.4375 16.3125 11.6925 16.3125 12C16.3125 12.9225 15.7725 13.755 14.9325 14.13L9.84 16.395C9.57 16.5075 9.285 16.5675 9 16.5675Z" fill="#707070"/>
</svg>